<svg xmlns="http://www.w3.org/2000/svg" width="16" height="16">
  <path d="M14,10.175l-.44-.256.212-.086A.36.36,0,0,0,14,9.5Zm-.228-3.342L10.529,8.151,12.55,9.33l1.222-.5A.36.36,0,0,0,14,8.5v-2A.36.36,0,0,1,13.772,6.833Zm-11.544,2,4.927,2a2.246,2.246,0,0,0,1.69,0L9,10.772v-2l-.155.063a2.246,2.246,0,0,1-1.69,0l-4.927-2A.36.36,0,0,1,2,6.5v2A.36.36,0,0,0,2.228,8.833ZM9,11.772l-.155.063a2.246,2.246,0,0,1-1.69,0l-4.927-2A.36.36,0,0,1,2,9.5v2a.36.36,0,0,0,.228.333l4.927,2a2.246,2.246,0,0,0,1.69,0L9,13.772ZM2,5.5v-2a.36.36,0,0,1,.228-.333l4.927-2a2.246,2.246,0,0,1,1.69,0l4.927,2A.36.36,0,0,1,14,3.5v2a.36.36,0,0,1-.228.333l-4.927,2a2.246,2.246,0,0,1-1.69,0l-4.927-2A.36.36,0,0,1,2,5.5ZM3.093,4a.274.274,0,0,0,.171.254L7.155,5.835a2.246,2.246,0,0,0,1.69,0l3.891-1.581a.274.274,0,0,0,0-.508L8.845,2.165a2.246,2.246,0,0,0-1.69,0L3.264,3.746A.274.274,0,0,0,3.093,4Z" fill="#f98b9e" fill-opacity=".7"/>
  <path fill="#62b543" d="M16 12.5L10 9 10 16 16 12.5z"/>
</svg>
