<svg xmlns="http://www.w3.org/2000/svg" width="16" height="16">
  <path d="M2.228,5.833l4.927,2a2.246,2.246,0,0,0,1.69,0l4.927-2A.36.36,0,0,0,14,5.5v-2a.36.36,0,0,0-.228-.333l-4.927-2a2.246,2.246,0,0,0-1.69,0l-4.927,2A.36.36,0,0,0,2,3.5v2A.36.36,0,0,0,2.228,5.833ZM3.264,3.746,7.155,2.165a2.246,2.246,0,0,1,1.69,0l3.891,1.581a.274.274,0,0,1,0,.508L8.845,5.835a2.246,2.246,0,0,1-1.69,0L3.264,4.254a.274.274,0,0,1,0-.508ZM9,13.772l-.155.063a2.246,2.246,0,0,1-1.69,0l-4.927-2A.36.36,0,0,1,2,11.5v-2a.36.36,0,0,0,.228.333l4.927,2a2.246,2.246,0,0,0,1.69,0L9,11.772ZM2,8.5v-2a.36.36,0,0,0,.228.333l4.927,2a2.246,2.246,0,0,0,1.69,0l4.927-2A.36.36,0,0,0,14,6.5v2a.36.36,0,0,1-.228.333L13.361,9H9v1.772l-.155.063a2.246,2.246,0,0,1-1.69,0l-4.927-2A.36.36,0,0,1,2,8.5Z" fill="#9aa7b0" opacity=".8"/>
  <path fill="#e05555" d="M10 10H16V16H10z"/>
</svg>
