<svg xmlns="http://www.w3.org/2000/svg" width="16" height="16" viewBox="0 0 16 16">
  <title>Redis</title>
  <g>
    <rect width="16" height="16" fill="#ffdbff" opacity="0"/>
    <path d="M14,10.5v2a.36.36,0,0,1-.228.333l-4.927,2a2.246,2.246,0,0,1-1.69,0l-4.927-2A.36.36,0,0,1,2,12.5v-2a.36.36,0,0,0,.228.333l4.927,2a2.246,2.246,0,0,0,1.69,0l4.927-2A.36.36,0,0,0,14,10.5Zm-.228-2.667-4.927,2a2.246,2.246,0,0,1-1.69,0l-4.927-2A.36.36,0,0,1,2,7.5v2a.36.36,0,0,0,.228.333l4.927,2a2.246,2.246,0,0,0,1.69,0l4.927-2A.36.36,0,0,0,14,9.5v-2A.36.36,0,0,1,13.772,7.833Zm0-3.666A.36.36,0,0,1,14,4.5v2a.36.36,0,0,1-.228.333l-4.927,2a2.246,2.246,0,0,1-1.69,0l-4.927-2A.36.36,0,0,1,2,6.5v-2a.36.36,0,0,1,.228-.333l4.927-2a2.246,2.246,0,0,1,1.69,0ZM12.736,5.254a.274.274,0,0,0,0-.508L8.845,3.165a2.246,2.246,0,0,0-1.69,0L3.264,4.746a.274.274,0,0,0,0,.508L7.155,6.835a2.246,2.246,0,0,0,1.69,0Z" fill="#f98b9e"/>
  </g>
</svg>
