<svg xmlns="http://www.w3.org/2000/svg" width="16" height="16" viewBox="0 0 16 16">
  <g id="OpenInBrowser_dark" fill="none" fill-rule="evenodd">
    <path id="Fill-3" fill="#AFB1B3" d="M9.7988,13.1934 C10.2878,12.3964 10.6618,11.2894 10.8538,10.0004 L13.1188,10.0004 C12.5348,11.4934 11.3198,12.6664 9.7988,13.1934 L9.7988,13.1934 Z M2.8808,10.0004 L5.1468,10.0004 C5.3388,11.2894 5.7128,12.3964 6.2008,13.1934 C4.6798,12.6664 3.4648,11.4934 2.8808,10.0004 L2.8808,10.0004 Z M6.2008,2.8064 C5.7128,3.6034 5.3388,4.7114 5.1468,6.0004 L2.8808,6.0004 C3.4648,4.5064 4.6798,3.3344 6.2008,2.8064 L6.2008,2.8064 Z M13.1188,6.0004 L10.8538,6.0004 C10.6618,4.7114 10.2878,3.6034 9.7988,2.8064 C11.3198,3.3344 12.5348,4.5064 13.1188,6.0004 L13.1188,6.0004 Z M7.9998,2.5004 C8.6208,2.5004 9.4818,3.8444 9.8348,6.0004 L6.1658,6.0004 C6.5178,3.8444 7.3788,2.5004 7.9998,2.5004 L7.9998,2.5004 Z M2.4998,8.0004 C2.4998,7.6584 2.5348,7.3244 2.5948,7.0004 L5.0388,7.0004 C5.0158,7.3264 4.9998,7.6594 4.9998,8.0004 C4.9998,8.3404 5.0158,8.6734 5.0388,9.0004 L2.5948,9.0004 C2.5348,8.6754 2.4998,8.3414 2.4998,8.0004 L2.4998,8.0004 Z M6.0448,9.0004 C6.0198,8.6774 5.9998,8.3484 5.9998,8.0004 C5.9998,7.6514 6.0198,7.3224 6.0448,7.0004 L9.9548,7.0004 C9.9798,7.3224 9.9998,7.6514 9.9998,8.0004 C9.9998,8.3484 9.9798,8.6774 9.9548,9.0004 L6.0448,9.0004 Z M7.9998,13.5004 C7.3788,13.5004 6.5178,12.1554 6.1658,10.0004 L9.8348,10.0004 C9.4818,12.1554 8.6208,13.5004 7.9998,13.5004 L7.9998,13.5004 Z M13.4998,8.0004 C13.4998,8.3414 13.4648,8.6754 13.4048,9.0004 L10.9608,9.0004 C10.9848,8.6734 10.9998,8.3404 10.9998,8.0004 C10.9998,7.6594 10.9848,7.3264 10.9608,7.0004 L13.4048,7.0004 C13.4648,7.3244 13.4998,7.6584 13.4998,8.0004 L13.4998,8.0004 Z M7.9998,1.0004 C4.1338,1.0004 0.9998,4.1334 0.9998,8.0004 C0.9998,11.8664 4.1338,15.0004 7.9998,15.0004 C11.8658,15.0004 14.9998,11.8664 14.9998,8.0004 C14.9998,4.1334 11.8658,1.0004 7.9998,1.0004 L7.9998,1.0004 Z"/>
  </g>
</svg>
