<?xml version="1.0" encoding="UTF-8"?>
<svg width="16px" height="16px" viewBox="0 0 16 16" version="1.1" xmlns="http://www.w3.org/2000/svg" xmlns:xlink="http://www.w3.org/1999/xlink">
    <!-- Generator: Sketch 53.2 (72643) - https://sketchapp.com -->
    <title>OSLinux</title>
    <desc>Created with Sketch.</desc>
    <g id="OSLinux" stroke="none" stroke-width="1" fill="none" fill-rule="evenodd">
        <g id="Group-12" transform="translate(2.000000, 2.000000)">
            <path d="M6,2.7998 C5.628,2.7998 4.9,3.1058 4.9,3.2828 C4.9,3.5378 5.711,4.4088 6,4.4088 C6.289,4.4088 7.1,3.5378 7.1,3.2828 C7.1,3.1058 6.372,2.7998 6,2.7998" id="Fill-2" fill="#D9A343"></path>
            <path d="M3.9961,10.9053 C3.9961,10.7443 3.7561,9.9383 3.5771,9.4043 C3.3871,8.8403 3.1421,8.0003 2.8751,8.0003 C2.6621,8.0003 2.4941,8.3533 2.1181,8.4703 C1.7911,8.5733 1.3571,8.4123 1.1521,8.4123 C0.9181,8.4123 0.7401,8.5893 0.7451,8.8353 C0.7521,9.3043 0.7811,9.4883 0.5921,9.8253 C0.3671,10.2283 0.0041,10.2853 0.0041,10.5613 C0.0041,10.8023 0.9231,11.1963 1.4631,11.4413 C2.0381,11.7033 2.7201,12.0003 2.9281,12.0003 C3.3781,12.0003 3.9961,11.4423 3.9961,10.9053" id="Fill-4" fill="#D9A343"></path>
            <path d="M2.0269,7.3301 C2.2109,7.1801 2.4869,7.0001 2.8749,7.0001 C3.0849,7.0001 3.2609,7.0551 3.4169,7.1401 C3.4129,7.0831 3.4009,7.0321 3.4009,6.9731 C3.4009,5.3631 4.2389,5.3391 4.2389,4.1981 C4.2389,3.3681 3.9999,3.2711 3.9999,2.4091 C3.9999,1.6241 4.5549,1.1501 5.0719,1.1501 C5.7529,1.1501 5.9999,1.6681 5.9999,1.8811 C5.9999,1.6681 6.2479,1.1501 6.9279,1.1501 C7.4449,1.1501 7.9999,1.6241 7.9999,2.4091 C7.9999,3.2711 7.7609,3.3681 7.7609,4.1981 C7.7609,5.3391 8.5999,5.3631 8.5999,6.9731 C8.5999,7.0321 8.5869,7.0831 8.5829,7.1401 C8.7389,7.0551 8.9149,7.0001 9.1249,7.0001 C9.5129,7.0001 9.7899,7.1801 9.9729,7.3301 C9.8339,5.2621 8.5129,5.0061 8.5129,3.7041 C8.5129,3.2001 8.6999,3.0031 8.6999,2.3961 C8.6999,1.0731 7.7349,0.0001 5.9999,0.0001 C4.2659,0.0001 3.2999,1.0731 3.2999,2.3961 C3.2999,3.0031 3.4869,3.2001 3.4869,3.7041 C3.4869,5.0061 2.1669,5.2621 2.0269,7.3301" id="Fill-6" fill="#9AA7B0"></path>
            <path d="M7.0039,10.9053 C7.0039,10.5623 7.2599,9.7263 7.4759,9.0863 L7.5359,8.9023 C7.5559,8.8423 7.5769,8.7803 7.5979,8.7193 C7.1689,8.9663 6.6289,9.1043 5.9999,9.1043 C5.3719,9.1043 4.8309,8.9663 4.4019,8.7193 C4.4229,8.7803 4.4439,8.8423 4.4639,8.9023 L4.5249,9.0853 C4.7399,9.7263 4.9959,10.5623 4.9959,10.9053 C4.9959,11.0533 4.9719,11.2003 4.9339,11.3443 C5.2749,11.4353 5.6289,11.5003 5.9999,11.5003 C6.3719,11.5003 6.7249,11.4353 7.0659,11.3443 C7.0279,11.2003 7.0039,11.0533 7.0039,10.9053" id="Fill-8" fill="#9AA7B0"></path>
            <path d="M9.0718,12 C9.2798,12 9.9618,11.703 10.5368,11.441 C11.0768,11.196 11.9958,10.803 11.9958,10.561 C11.9958,10.285 11.6338,10.229 11.4078,9.826 C11.2188,9.489 11.2478,9.305 11.2558,8.835 C11.2598,8.589 11.0818,8.413 10.8478,8.413 C10.6428,8.413 10.2088,8.573 9.8818,8.471 C9.5068,8.353 9.3378,8 9.1248,8 C8.8588,8 8.6138,8.84 8.4238,9.404 C8.2438,9.938 8.0038,10.745 8.0038,10.905 C8.0038,11.442 8.6218,12 9.0718,12" id="Fill-10" fill="#D9A343"></path>
        </g>
    </g>
</svg>