<svg xmlns="http://www.w3.org/2000/svg" width="16" height="16" viewBox="0 0 16 16">
  <path fill="#9aa7b0" d="M12.1 3.1h.8v7.8h-.8V3.1M12 2a1 1 0 00-1 1v8a1 1 0 001 1h1a1 1 0 001-1V3a1 1 0 00-1-1zM8.1 3.1h.8v7.8h-.8V3.1M8 2a1 1 0 00-1 1v8a1 1 0 001 1h1a1 1 0 001-1V3a1 1 0 00-1-1z"/>
  <rect width="3" height="10" x="3" y="2" fill="#40b6e0" opacity=".7" rx="1" transform="rotate(-180 4.5 7)"/>
  <path fill="#9aa7b0" d="M2 11.5v1a.5.5 0 00.5.5h12a.5.5 0 00.5-.5v-1h1v1a1.5 1.5 0 01-1.5 1.5h-12A1.5 1.5 0 011 12.5v-1z"/>
</svg>
