<svg xmlns="http://www.w3.org/2000/svg" width="16" height="16">
  <path d="M16,13H14.5a2,2,0,0,0-3.933-.487l-.508-.1A3,3,0,0,1,16,13Zm-3,3a3,3,0,0,0,2.941-2.412l-.508-.1A2,2,0,0,1,11.5,13H10A3,3,0,0,0,13,16Z" fill="#b99bf8"/>
  <path d="M10.062,10.305A.974.974,0,0,1,10,10V2a1,1,0,0,1,1-1h1a1,1,0,0,1,1,1V9a3.964,3.964,0,0,0-1.1.172V2.1h-.8V9.5A3.955,3.955,0,0,0,10.062,10.305ZM1.5,12a.5.5,0,0,1-.5-.5v-1H0v1A1.5,1.5,0,0,0,1.5,13H9a3.977,3.977,0,0,1,.141-1ZM3,11H4a1,1,0,0,0,1-1V2A1,1,0,0,0,4,1H3A1,1,0,0,0,2,2v8A1,1,0,0,0,3,11Zm3-1V2A1,1,0,0,1,7,1H8A1,1,0,0,1,9,2v8a1,1,0,0,1-1,1H7A1,1,0,0,1,6,10Zm1.1-.1h.8V2.1H7.1Z" fill="#9aa7b0" opacity=".6"/>
</svg>
