<svg xmlns="http://www.w3.org/2000/svg" width="16" height="16" viewBox="0 0 16 16">
  <title>DockerRunning</title>
  <g>
    <rect width="16" height="16" fill="#ffdbff" opacity="0"/>
    <g>
      <polygon points="16 12.5 10 9 10 16 16 12.5" fill="#62b543"/>
      <path d="M10,4H8V2h2Zm3.661,4.634A1.827,1.827,0,0,0,16,7.589a1.8,1.8,0,0,0-2.244-.5,1.845,1.845,0,0,0-1.289-2.045c-.723.578-.789,1.612-.088,2.723A2.245,2.245,0,0,1,11.244,8h-.973l2.914,1.7A9.855,9.855,0,0,0,13.661,8.634ZM10,5H8V7h2ZM4,5H2V7H4ZM7,2H5V4H7ZM9,13.475A8.853,8.853,0,0,1,5.964,14C1.976,14,.992,10.706.992,8.8a4.42,4.42,0,0,1,.046-.665c.007-.05.014-.093.02-.132H9ZM6.75,10.5A1.25,1.25,0,1,0,5.5,11.75,1.25,1.25,0,0,0,6.75,10.5ZM7,5H5V7H7Z" fill="#40b6e0"/>
    </g>
  </g>
</svg>
