<svg xmlns="http://www.w3.org/2000/svg" width="16" height="16" viewBox="0 0 16 16">
  <title>Docker</title>
  <g>
    <rect width="16" height="16" fill="#ffdbff" opacity="0"/>
    <path d="M7,7H5V5H7ZM4,5H2V7H4Zm6,0H8V7h2Zm0-3H8V4h2ZM7,2H5V4H7Zm9,5.589a1.827,1.827,0,0,1-2.339,1.045A7.748,7.748,0,0,1,5.964,14C1.976,14,.992,10.706.992,8.8a4.42,4.42,0,0,1,.046-.665c.007-.05.014-.093.02-.132H11.244a2.245,2.245,0,0,0,1.135-.233c-.7-1.111-.635-2.145.088-2.723a1.845,1.845,0,0,1,1.289,2.045A1.8,1.8,0,0,1,16,7.589ZM6.75,10.5A1.25,1.25,0,1,0,5.5,11.75,1.25,1.25,0,0,0,6.75,10.5Z" fill="#40b6e0" fill-rule="evenodd"/>
  </g>
</svg>
