<svg xmlns="http://www.w3.org/2000/svg" width="16" height="16" viewBox="0 0 16 16">
  <path fill="#40b6e0" d="M7 6H5V4h2zm0-5H5v2h2zM4 4H2v2h2zm5 7.653A7.236 7.236 0 014.638 13C.917 13 0 9.69 0 7.771A4.9 4.9 0 01.057 7h9.276a2.643 2.643 0 001.289-.264 2.651 2.651 0 01-.567-1.516A1.474 1.474 0 0110.7 4a1.355 1.355 0 011.252 1.475 3.766 3.766 0 01-.05.58 1.811 1.811 0 01.819-.231A1.351 1.351 0 0114 6.557a1.584 1.584 0 01-1.592 1.134 2.193 2.193 0 01-.59-.084 10.358 10.358 0 01-.432 1.044l-.886-.515A1 1 0 009 9zM5.75 9.5a1.25 1.25 0 10-1.25 1.25A1.25 1.25 0 005.75 9.5z" opacity=".7"/>
  <path fill="#62b543" d="M16 12.5L10 9v7l6-3.5z"/>
</svg>
