<svg xmlns="http://www.w3.org/2000/svg" width="16" height="16">
  <path d="M0 5V0H1.22L2.484 2.85h.039L3.787 0H5V5H4V1.883L2.844 4.249H2.149L1 1.883V5zM8.442 4.681A1.742 1.742 0 016.621 6a3.452 3.452 0 01-.6-.051V5.143a2.058 2.058 0 00.333.026c.605 0 .713-.4.8-.7L5.757 1H7.042l.772 2.588L8.511 1H9.749S8.621 4.21 8.442 4.681z" fill="#9aa7b0" opacity=".6"/>
  <path d="M14,8.768A1.5,1.5,0,0,1,13.976,9H10.248A6.947,6.947,0,0,0,14,7.267Zm-5,3.9c-.331.025-.665.041-1,.041-2.4,0-4.764-.649-6-1.939v1.3C2,13.688,4.686,15,8,15c.342,0,.674-.017,1-.044ZM8,8.2c3.314,0,6-1.312,6-2.932V3.932c0-1.145-1.345-2.133-3.3-2.616l-.006.016-.281.8c1.5.382,2.389,1.065,2.389,1.591,0,.663-1.4,1.58-3.657,1.822A2.648,2.648,0,0,1,6.621,7a4.487,4.487,0,0,1-.837-.078l-.767-.184V6H3V5.249H2v.019C2,6.888,4.686,8.2,8,8.2Zm0,3.5c.342,0,.674-.017,1-.044V9.165c-.331.025-.665.041-1,.041-2.4,0-4.764-.649-6-1.939v1.5C2,10.388,4.686,11.7,8,11.7Z" fill="#9aa7b0" opacity=".6"/>
  <path fill="#e05555" d="M10 10H16V16H10z"/>
</svg>
