<svg xmlns="http://www.w3.org/2000/svg" width="16" height="16">
  <path d="M0,5V0H1.22L2.484,2.85h.039L3.787,0H5V5H4V1.883L2.844,4.249H2.149L1,1.883V5Z" fill="#d9a343"/>
  <path d="M2,10.767v1.3C2,13.688,4.686,15,8,15s6-1.312,6-2.932v-1.3c-1.236,1.291-3.605,1.939-6,1.939S3.236,12.057,2,10.767Z" fill="#40b6e0" opacity=".7"/>
  <path d="M2,7.267v1.5C2,10.388,4.686,11.7,8,11.7s6-1.312,6-2.932v-1.5C12.764,8.558,10.4,9.206,8,9.206S3.236,8.557,2,7.267Z" fill="#40b6e0" opacity=".7"/>
  <path d="M10.7,1.316l-.006.016-.281.8c1.5.382,2.389,1.065,2.389,1.591,0,.663-1.4,1.58-3.657,1.822A2.648,2.648,0,0,1,6.621,7a4.487,4.487,0,0,1-.837-.078l-.767-.184V6H3V5.249H2v.019C2,6.888,4.686,8.2,8,8.2s6-1.312,6-2.932V3.932C14,2.787,12.655,1.8,10.7,1.316Z" fill="#40b6e0" opacity=".7"/>
  <path d="M8.442,4.681A1.742,1.742,0,0,1,6.621,6a3.452,3.452,0,0,1-.6-.051V5.143a2.058,2.058,0,0,0,.333.026c.605,0,.713-.4.8-.7L5.757,1H7.042l.772,2.588L8.511,1H9.749S8.621,4.21,8.442,4.681Z" fill="#d9a343"/>
</svg>
