<svg xmlns="http://www.w3.org/2000/svg" width="16" height="16">
  <path d="M0 5V0H1.22L2.484 2.85h.039L3.787 0H5V5H4V1.883L2.844 4.249H2.149L1 1.883V5zM8.442 4.681A1.742 1.742 0 016.621 6a3.452 3.452 0 01-.6-.051V5.143a2.058 2.058 0 00.333.026c.605 0 .713-.4.8-.7L5.757 1H7.042l.772 2.588L8.511 1H9.749S8.621 4.21 8.442 4.681z" fill="#9aa7b0" opacity=".6"/>
  <path d="M2,8.768v-1.5c1.236,1.29,3.6,1.939,6,1.939s4.764-.648,6-1.939v1.5a1.485,1.485,0,0,1-.049.358,3.927,3.927,0,0,0-4.7,2.509A12.166,12.166,0,0,1,8,11.7C4.686,11.7,2,10.388,2,8.768ZM8,8.2c3.314,0,6-1.312,6-2.932V3.932c0-1.145-1.345-2.133-3.3-2.616l-.006.016-.281.8c1.5.382,2.389,1.065,2.389,1.591,0,.663-1.4,1.58-3.657,1.822A2.648,2.648,0,0,1,6.621,7a4.487,4.487,0,0,1-.837-.078l-.767-.184V6H3V5.249H2v.019C2,6.888,4.686,8.2,8,8.2ZM9,13c0-.116.024-.225.034-.339-.342.027-.687.045-1.034.045-2.4,0-4.764-.649-6-1.939v1.3C2,13.688,4.686,15,8,15a12.115,12.115,0,0,0,1.5-.1A3.961,3.961,0,0,1,9,13Z" fill="#9aa7b0" opacity=".6"/>
  <path d="M16,13H14.5a2,2,0,0,0-3.933-.487l-.508-.1A3,3,0,0,1,16,13Zm-3,3a3,3,0,0,0,2.941-2.412l-.508-.1A2,2,0,0,1,11.5,13H10A3,3,0,0,0,13,16Z" fill="#b99bf8"/>
</svg>
