<svg xmlns="http://www.w3.org/2000/svg" width="16" height="16" viewBox="0 0 16 16">
  <g id="FunctionDisabled" fill="none" fill-rule="evenodd" stroke="none" stroke-width="1">
    <path id="Fill-3" fill="#9AA7B0" d="M11.8979,2.6953 C11.5899,2.6953 11.1579,2.3463 10.9899,1.9133 C9.9869,2.1293 9.4179,3.5333 9.2249,4.4643 L7.8099,11.2383 C7.3419,13.4533 5.5149,14.6443 4.5339,14.6443 C4.0649,14.6443 3.5909,14.2903 3.5909,13.8083 C3.5909,13.4883 3.8559,13.3093 4.1429,13.3093 C4.4769,13.3093 4.8219,13.6713 5.0339,14.0433 C6.0289,13.7623 6.6139,12.6033 6.8279,11.6313 L8.2439,4.8543 C8.6279,3.0033 10.0759,1.4003 11.4679,1.4003 C12.0859,1.4003 12.4429,1.7543 12.4429,2.1663 C12.4429,2.4553 12.2109,2.6953 11.8979,2.6953 M11.4639,0.7973 C9.7289,0.7973 8.0139,2.5163 7.5589,4.7123 L7.4939,5.0193 L5.9819,5.0193 L5.7819,6.0193 L7.2849,6.0193 L6.1439,11.4833 C5.9419,12.3963 5.6889,13.1163 5.3309,13.5863 C5.3309,13.5873 5.3319,13.5893 5.3319,13.5903 C5.0529,13.1433 4.6759,12.6683 4.0789,12.6683 C3.4349,12.6683 2.8909,13.1903 2.8909,13.8083 C2.8909,14.6253 3.5979,15.2423 4.5349,15.2423 C5.6359,15.2423 7.9409,13.9983 8.4949,11.3833 L9.6149,6.0193 L11.1999,6.0193 L11.3999,5.0193 L9.8239,5.0193 L9.9109,4.6073 C10.2139,3.1443 10.4759,2.5983 10.6419,2.3983 C10.8779,2.8063 11.2809,3.3323 11.9189,3.3323 C12.5829,3.3323 13.0789,2.7183 13.0789,2.1703 C13.0789,1.4003 12.3699,0.7973 11.4639,0.7973" opacity=".8"/>
    <polygon id="Fill-5" fill="#E05555" points="10 16 16 16 16 10 10 10"/>
  </g>
</svg>
