<svg xmlns="http://www.w3.org/2000/svg" width="16" height="16" viewBox="0 0 16 16">
  <path fill="#00b8e4" d="M6.932 5.287a.128.128 0 00.136 0l1.8-1.13a.135.135 0 00.064-.123.137.137 0 00-.075-.117l-1.795-.9a.125.125 0 00-.116 0l-1.795.9a.137.137 0 00-.075.117.135.135 0 00.064.123z"/>
  <path fill="#00b8e4" d="M6.75 5.838a.13.13 0 00-.061-.11L4.876 4.587a.136.136 0 00-.139 0 .137.137 0 00-.07.12v2.022a.132.132 0 00.06.11l1.813 1.14a.136.136 0 00.139 0 .139.139 0 00.071-.121z" opacity=".8"/>
  <path fill="#00b8e4" d="M7.311 5.728a.13.13 0 00-.061.11v2.024a.139.139 0 00.071.121.136.136 0 00.139 0l1.813-1.14a.132.132 0 00.06-.11V4.7a.137.137 0 00-.07-.12.136.136 0 00-.139 0z" opacity=".6"/>
  <path fill="#9aa7b0" d="M9 10H1a1 1 0 01-1-1V2a1 1 0 011-1h12a1 1 0 011 1v7a.99.99 0 01-.53.867L11.985 9H13V2H1v7h8z"/>
  <path fill="#9aa7b0" d="M9 12h-.5l-.187-1.5H5.688L5.5 12H2.8v1H9v-1z" opacity=".8"/>
  <path fill="#62b543" d="M16 12.5L10 9v7l6-3.5z"/>
</svg>
