<svg xmlns="http://www.w3.org/2000/svg" width="16" height="16" viewBox="0 0 16 16">
  <title>VirtualMachinesStopped</title>
  <g>
    <rect width="16" height="16" fill="#ffdbff" opacity="0"/>
    <g>
      <rect x="10" y="10" width="6" height="6" fill="#e05555"/>
      <g>
        <path d="M9,12H1a1,1,0,0,1-1-1V2A1,1,0,0,1,1,1H15a1,1,0,0,1,1,1V9H15V2H1v9H9Zm0,.5H6.188L6,14H3v1H9Z" fill="#9aa7b0" opacity="0.8"/>
        <path d="M7.6,6.793a.167.167,0,0,1,.078.141v2.6a.176.176,0,0,1-.27.15L5.078,8.221A.165.165,0,0,1,5,8.08v-2.6a.176.176,0,0,1,.27-.15ZM9,9h.684l1.238-.779A.165.165,0,0,0,11,8.08v-2.6a.176.176,0,0,0-.27-.15L8.4,6.793a.167.167,0,0,0-.077.141v2.6a.175.175,0,0,0,.269.15L9,9.43Zm1.479-4.385a.176.176,0,0,0-.1-.15L8.074,3.3a.167.167,0,0,0-.148,0L5.618,4.465a.178.178,0,0,0-.015.309L7.912,6.226a.165.165,0,0,0,.176,0L10.4,4.774A.178.178,0,0,0,10.479,4.615Z" fill="#9aa7b0" opacity="0.8"/>
      </g>
    </g>
  </g>
</svg>
