<svg xmlns="http://www.w3.org/2000/svg" width="16" height="16" viewBox="0 0 16 16">
  <path fill="#59b4d9" d="M8.734 2.937a7.616 7.616 0 011.652-1.255A6.492 6.492 0 0114 7.41a9.108 9.108 0 00-1.4-1.519 1.684 1.684 0 00.055-.411 1.71 1.71 0 00-1.71-1.71 1.691 1.691 0 00-1.009.336c-.263-.134-.528-.264-.8-.385S8.6 3.5 8.327 3.4c.136-.153.263-.317.407-.463zm3.225 3.913a1.7 1.7 0 01-2.724-1.37c0-.019.005-.038.006-.057-.236-.109-.466-.228-.7-.33-.377-.17-.763-.32-1.148-.474A13.07 13.07 0 006 7.328c-.026.068-.044.139-.07.208a2.037 2.037 0 01.722 1.55c0 .045-.01.087-.013.131.1.028.192.062.29.088A16.639 16.639 0 009 9.733V9a1 1 0 011.5-.864L13.535 9.9a6.449 6.449 0 00.416-1.638 17.264 17.264 0 00-1.992-1.412zM5.3 2.623a12.477 12.477 0 011.423.283 9.025 9.025 0 011.131-1 7.282 7.282 0 011.166-.717A6.551 6.551 0 007.5 1a6.471 6.471 0 00-4.19 1.534 10.451 10.451 0 011.99.089zm-1.728 8.229A2.017 2.017 0 012.6 8.641a5.6 5.6 0 01-1.51-2.175A6.417 6.417 0 003.745 12.8c-.013-.072-.033-.144-.045-.216a9.9 9.9 0 01-.128-1.732zm1.474-7.09a21.853 21.853 0 00-2.372-.606 6.48 6.48 0 00-1.4 2.475 6.6 6.6 0 001.9 1.984 2.038 2.038 0 011.068-.544c.041-.123.08-.246.124-.367A12.334 12.334 0 015.8 4.027c-.251-.088-.5-.182-.754-.265zM9 11.133a12.69 12.69 0 01-2.465-.382c-.178-.05-.353-.118-.529-.177a2.035 2.035 0 01-.891.491 12.238 12.238 0 00-.056 1.38 9.3 9.3 0 00.1 1.114A6.286 6.286 0 009 13.812z" opacity=".7"/>
  <path fill="#62b543" d="M16 12.5L10 9v7l6-3.5z"/>
</svg>
