<svg xmlns="http://www.w3.org/2000/svg" width="16" height="16" viewBox="0 0 16 16">
  <path fill="#b99bf8" d="M16 13h-1.5a2 2 0 00-3.933-.487l-.508-.1A3 3 0 0116 13zm-3 3a3 3 0 002.941-2.412l-.508-.1A2 2 0 0111.5 13H10a3 3 0 003 3z"/>
  <path fill="#9aa7b0" d="M9 13c0-.076.018-.146.022-.221a5.429 5.429 0 01-4.189-.473 12.654 12.654 0 01.147-1.726h.032a1.928 1.928 0 001.505-.732 12.821 12.821 0 003.407.62 4 4 0 01.814-.767 16.716 16.716 0 01-3.817-.772 1.852 1.852 0 00-.864-1.914 12.525 12.525 0 011.048-1.922c.346.151.7.294 1.035.461.207.1.407.209.609.318a1.672 1.672 0 00-.08.487 1.691 1.691 0 002.9 1.188c.456.329.9.683 1.323 1.056-.03.143-.072.281-.112.42.075 0 .146-.023.223-.023a4.037 4.037 0 01.8.08A6.532 6.532 0 109.08 13.8 4.037 4.037 0 019 13zM6.45 8.646a1.438 1.438 0 11-1.438-1.439A1.439 1.439 0 016.45 8.646zm3.912-1.093a1.193 1.193 0 111.193-1.194 1.194 1.194 0 01-1.193 1.194zM13 7.5c0 .157-.01.312-.024.467a9.559 9.559 0 00-1.015-1.075 1.676 1.676 0 00.094-.533 1.684 1.684 0 00-2.746-1.315c-.243-.133-.485-.268-.734-.39q-.43-.2-.871-.385A10.137 10.137 0 018.6 3.3a7.318 7.318 0 011.11-.833A5.5 5.5 0 0113 7.5zM7.5 2a5.48 5.48 0 011.37.18 7.165 7.165 0 00-.77.532 9.385 9.385 0 00-1.258 1.231 13.7 13.7 0 00-1.976-.537c-.289-.057-.583-.1-.879-.133A5.472 5.472 0 017.5 2zM3.42 3.824c.423.1.843.211 1.257.336.523.168 1.037.359 1.548.559a11.894 11.894 0 00-1.118 2c-.032 0-.063-.01-.1-.01a1.93 1.93 0 00-1.381.581C3.5 7.194 3.361 7.1 3.232 7a6.645 6.645 0 01-1.009-1.038A5.493 5.493 0 013.42 3.824zm.567 7.9A5.488 5.488 0 012 7.5a5.367 5.367 0 01.048-.687 5.429 5.429 0 00.659.759c.153.154.32.289.486.427a1.9 1.9 0 00-.119.647 1.928 1.928 0 00.987 1.677 10.3 10.3 0 00-.074 1.404z" opacity=".6"/>
</svg>
