<svg xmlns="http://www.w3.org/2000/svg" width="16" height="16" viewBox="0 0 16 16">
  <path fill="#9aa7b0" d="M14 2l-5.8.969V7.2H14zm-1 4.2H9.2V3.816l3.8-.635zm-3.983 6.967l-.817-.136V8.8H14v.341a3.841 3.841 0 00-3.378.659H9.2v2.011A3.967 3.967 0 009 13c0 .057.015.111.017.167zM2 7.2h4.8V3.184L2 4zm1-2.355l2.8-.476V6.2H3zM2 12l4.8.815V8.8H2zm1-2.2h2.8v1.831L3 11.156z" opacity=".6"/>
  <path fill="#b99bf8" d="M16 13h-1.5a2 2 0 00-3.933-.487l-.508-.1A3 3 0 0116 13zm-3 3a3 3 0 002.941-2.412l-.508-.1A2 2 0 0111.5 13H10a3 3 0 003 3z"/>
</svg>
