<svg xmlns="http://www.w3.org/2000/svg" width="16" height="16" viewBox="0 0 16 16">
  <title>WebApp</title>
  <g>
    <rect width="16" height="16" fill="#ffdbff" opacity="0"/>
    <path d="M9.05,3.387A9.508,9.508,0,0,1,11.03,1.7,6.993,6.993,0,0,1,15,7.952,9.976,9.976,0,0,0,13.4,6.239c-.038-.033-.08-.062-.119-.094a1.561,1.561,0,0,0,.02-.207,1.476,1.476,0,0,0-1.476-1.476,1.456,1.456,0,0,0-.729.2c-.446-.246-.9-.479-1.361-.688-.29-.123-.584-.237-.879-.347C8.925,3.549,8.982,3.464,9.05,3.387ZM5.609,2.781a13.851,13.851,0,0,1,1.488.3,10.141,10.141,0,0,1,.891-.83A7.654,7.654,0,0,1,9.667,1.208a6.932,6.932,0,0,0-6.2,1.462A11.388,11.388,0,0,1,5.609,2.781ZM6.53,7.568c-.07.175-.119.357-.182.535A1.906,1.906,0,0,1,6.873,9.4c.189.046.373.106.564.143a22.858,22.858,0,0,0,4.271.428c1,0,2.011-.053,3.036-.114A6.908,6.908,0,0,0,14.951,8.8a18.129,18.129,0,0,0-2.238-1.613c-.017-.01-.035-.018-.051-.028a1.476,1.476,0,0,1-2.311-1.218l0-.018c-.4-.2-.806-.4-1.22-.574-.389-.175-.788-.328-1.184-.487A16.012,16.012,0,0,0,6.53,7.568Zm5.256,3.566a14.16,14.16,0,0,1-4.648-.127c-.283-.06-.564-.136-.844-.219a1.9,1.9,0,0,1-.784.455c-.063.367-.118.735-.149,1.106a12.781,12.781,0,0,0,.006,2.134,6.984,6.984,0,0,0,9.186-4.04A14.705,14.705,0,0,1,11.786,11.134ZM3.8,12.358a10.709,10.709,0,0,1-.011-1.433,1.905,1.905,0,0,1-.747-1.508c0-.066.013-.127.019-.191-.075-.056-.158-.1-.231-.158A5.488,5.488,0,0,1,1.106,6.827a6.926,6.926,0,0,0,2.909,6.924A9.26,9.26,0,0,1,3.8,12.358ZM5.357,3.92A22.205,22.205,0,0,0,2.826,3.3,6.987,6.987,0,0,0,1.291,6.011,6.181,6.181,0,0,0,3.507,8.118c.011.007.023.012.034.018A1.918,1.918,0,0,1,4.4,7.592c.084-.261.174-.521.277-.776A11.969,11.969,0,0,1,6.151,4.194C5.885,4.1,5.624,4.005,5.357,3.92Z" fill="#40b6e0"/>
  </g>
</svg>
