<svg xmlns="http://www.w3.org/2000/svg" width="16" height="16" viewBox="0 0 16 16">
  <path fill="#9aa7b0" d="M11.464.8c-1.735 0-3.45 1.721-3.9 3.916l-.065.308H5.982l-.2 1h1.5l-1.138 5.459a5.532 5.532 0 01-.813 2.1 1.576 1.576 0 00-1.253-.922 1.18 1.18 0 00-1.188 1.141 1.516 1.516 0 001.644 1.433 4.8 4.8 0 003.96-3.859L9.615 6.02H11.2l.2-1H9.824l.087-.413a5.739 5.739 0 01.731-2.207 1.577 1.577 0 001.277.934 1.208 1.208 0 001.16-1.162A1.493 1.493 0 0011.464.8zm.436 1.9a1.206 1.206 0 01-.908-.782c-1 .216-1.572 1.62-1.765 2.551l-1.417 6.77a4.141 4.141 0 01-3.276 3.406.915.915 0 01-.943-.836.509.509 0 01.552-.5c.334 0 .68.361.891.733a3.091 3.091 0 001.794-2.412l1.416-6.776C8.628 3 10.076 1.4 11.468 1.4c.618 0 .976.354.976.766a.533.533 0 01-.544.534z" opacity=".6"/>
  <path fill="#e05555" d="M10 10h6v6h-6z"/>
</svg>
