<svg xmlns="http://www.w3.org/2000/svg" width="16" height="16" viewBox="0 0 16 16">
  <path fill="#b99bf8" d="M9.3 5.82l-1.15 5.491a4.5 4.5 0 01-1.309 2.4 4.062 4.062 0 01-2.308 1.182 1.174 1.174 0 01-1.294-1.082.838.838 0 01.838-.79c.53 0 .858.583 1.131 1.046.244-.019.421-.252.658-.679a6.965 6.965 0 00.618-1.827l1.2-5.739H6.313l.137-.594h1.357l.093-.444c.432-2.084 2.05-3.637 3.563-3.637a1.145 1.145 0 011.266 1.023.858.858 0 01-.81.811c-.556 0-.9-.591-1.129-1.046-.673.029-1.043 1.734-1.222 2.6l-.147.69h1.547l-.137.594z"/>
</svg>
