<svg xmlns="http://www.w3.org/2000/svg" width="16" height="16" viewBox="0 0 16 16">
  <g id="AzureARM" fill="none" fill-rule="evenodd" stroke="none" stroke-width="1">
    <path id="Fill-3" fill="#00B8E4" d="M7.5669,6.999 C7.8049,7.137 8.1949,7.137 8.4329,6.999 L11.9169,4.988 C12.1549,4.85 12.1549,4.625 11.9169,4.488 L8.4329,2.477 C8.1949,2.339 7.8049,2.339 7.5669,2.477 L4.0829,4.488 C3.8449,4.625 3.8449,4.85 4.0829,4.988 L7.5669,6.999 Z"/>
    <path id="Fill-5" fill="#00B8E4" d="M9.083,8.1255 C8.845,8.2635 8.65,8.6005 8.65,8.8755 L8.65,12.8985 C8.65,13.1735 8.845,13.2855 9.083,13.1485 L12.567,11.1365 C12.805,10.9995 13,10.6615 13,10.3865 L13,6.3635 C13,6.0885 12.805,5.9765 12.567,6.1135 L9.083,8.1255 Z" opacity=".6"/>
    <path id="Fill-7" fill="#00B8E4" d="M7.3501,8.8755 C7.3501,8.6005 7.1551,8.2635 6.9171,8.1255 L3.4331,6.1135 C3.1951,5.9765 3.0001,6.0885 3.0001,6.3635 L3.0001,10.3865 C3.0001,10.6615 3.1951,10.9995 3.4331,11.1365 L6.9171,13.1485 C7.1551,13.2855 7.3501,13.1735 7.3501,12.8985 L7.3501,8.8755 Z" opacity=".8"/>
    <polygon id="Path" fill="#9AA7B0" points="15 12.107 15 3.892 12.286 2 11.714 2.82 14 4.414 14 11.586 11.714 13.179 12.286 14"/>
    <polygon id="Path" fill="#9AA7B0" points="3.714 14 1 12.107 1 3.892 3.714 2 4.286 2.82 2 4.414 2 11.586 4.286 13.179"/>
  </g>
</svg>
