<svg xmlns="http://www.w3.org/2000/svg" width="16" height="16" viewBox="0 0 16 16">
  <g id="AzureARMDeployment" fill="none" fill-rule="evenodd" stroke="none" stroke-width="1">
    <path id="Fill-3" fill="#B99BF8" d="M12.5,8 L3.5,8 C2.672,8 2,8.671 2,9.5 L2,12.5 C2,13.329 2.672,14 3.5,14 L12.5,14 C13.328,14 14,13.329 14,12.5 L14,9.5 C14,8.671 13.328,8 12.5,8 M12.5,9 C12.776,9 13,9.224 13,9.5 L13,12.5 C13,12.776 12.776,13 12.5,13 L3.5,13 C3.224,13 3,12.776 3,12.5 L3,9.5 C3,9.224 3.224,9 3.5,9 L12.5,9"/>
    <polygon id="Fill-5" fill="#62B543" points="4 12 6 12 6 10 4 10"/>
    <polygon id="Fill-7" fill="#62B543" points="7 12 9 12 9 10 7 10"/>
    <polygon id="Fill-8" fill="#62B543" points="10 12 12 12 12 10 10 10"/>
    <polygon id="Fill-9" fill="#B99BF8" points="8 2 11 5 9 5 9 7 7 7 7 5 5 5"/>
  </g>
</svg>
