<svg xmlns="http://www.w3.org/2000/svg" width="16" height="16" viewBox="0 0 16 16">
  <path fill="#40b6e0" d="M4 7.419l3.669-2.1 1.667-.112 3.973 1.222a3.188 3.188 0 00-.989-.679c0-.106.028-.239.028-.346A3.521 3.521 0 008.708 2a3.7 3.7 0 00-2.94 1.411 2.708 2.708 0 00-1.456-.4A2.679 2.679 0 001.568 5.6v.213A2.574 2.574 0 000 8.151 2.967 2.967 0 003.136 11H4z" opacity=".7"/>
  <path fill="#9aa7b0" d="M8.167 9.005L5 10V8l3.3-1.883zm-.044.97L5 10.6V13l3.3 1.883zm.58 4.947L15 12.5v-1.9l-6.125-.66zm0-8.86l.128 2.894L15 10V8z" opacity=".8"/>
</svg>
