<svg xmlns="http://www.w3.org/2000/svg" width="16" height="16" viewBox="0 0 16 16">
  <title>Database</title>
  <g>
    <rect width="16" height="16" fill="#ffdbff" opacity="0"/>
    <path d="M8,9.206c-2.4,0-4.764-.648-6-1.939v1.5C2,10.388,4.686,11.7,8,11.7s6-1.312,6-2.932v-1.5C12.764,8.558,10.4,9.206,8,9.206Zm0,3.5c-2.4,0-4.764-.648-6-1.939v1.3C2,13.688,4.686,15,8,15s6-1.312,6-2.932v-1.3C12.764,12.058,10.4,12.706,8,12.706ZM8,1C4.686,1,2,2.312,2,3.932V5.268C2,6.888,4.686,8.2,8,8.2s6-1.312,6-2.932V3.932C14,2.312,11.314,1,8,1ZM8,5.607c-2.93,0-4.8-1.116-4.8-1.885S5.07,1.838,8,1.838s4.8,1.116,4.8,1.884S10.93,5.607,8,5.607Z" fill="#62b543"/>
  </g>
</svg>
