<svg xmlns="http://www.w3.org/2000/svg" width="16" height="16" viewBox="0 0 16 16">
  <title>Discard</title>
  <g>
    <rect width="16" height="16" fill="#ffdbff" opacity="0"/>
    <path d="M4,12a2,2,0,0,0,2,2h4a2,2,0,0,0,2-2V5H4ZM9.362,6.028A.484.484,0,0,1,9.5,6a.5.5,0,0,1,.5.5v5a.5.5,0,0,1-.5.5.484.484,0,0,1-.138-.028.6.6,0,0,0,.038-.209V6.237A.6.6,0,0,0,9.362,6.028Zm-3,0A.484.484,0,0,1,6.5,6a.5.5,0,0,1,.5.5v5a.5.5,0,0,1-.5.5.484.484,0,0,1-.138-.028.6.6,0,0,0,.038-.209V6.237A.6.6,0,0,0,6.362,6.028ZM12.7,4v.5H3.3V4a1,1,0,0,1,1-1H6A1,1,0,0,1,7,2H9a1,1,0,0,1,1,1h1.7A1,1,0,0,1,12.7,4Z" fill="#6e6e6e"/>
  </g>
</svg>
