<svg xmlns="http://www.w3.org/2000/svg" width="16" height="16" viewBox="0 0 16 16">
  <path fill="#40b6e0" fill-rule="evenodd" d="M7 7H5V5h2zM4 5H2v2h2zm6 0H8v2h2zm0-3H8v2h2zM7 2H5v2h2zm9 5.589a1.827 1.827 0 01-2.339 1.045A7.748 7.748 0 015.964 14C1.976 14 .992 10.706.992 8.8a4.42 4.42 0 01.046-.665l.02-.132h10.186a2.245 2.245 0 001.135-.233c-.7-1.111-.635-2.145.088-2.723a1.845 1.845 0 011.289 2.045A1.8 1.8 0 0116 7.589zM6.75 10.5a1.25 1.25 0 10-1.25 1.25 1.25 1.25 0 001.25-1.25z" opacity=".7"/>
</svg>
