<svg xmlns="http://www.w3.org/2000/svg" width="16" height="16" viewBox="0 0 16 16">
  <title>DockerStopped</title>
  <g>
    <rect width="16" height="16" fill="#ffdbff" opacity="0"/>
    <g>
      <rect x="10" y="10" width="6" height="6" fill="#e05555"/>
      <path d="M10,7H8V5h2ZM7,2H5V4H7Zm3,0H8V4h2ZM9,13.475A8.853,8.853,0,0,1,5.964,14C1.976,14,.992,10.706.992,8.8a4.42,4.42,0,0,1,.046-.665c.007-.05.014-.093.02-.132H11.244a2.245,2.245,0,0,0,1.135-.233c-.7-1.111-.635-2.145.088-2.723a1.845,1.845,0,0,1,1.289,2.045,1.8,1.8,0,0,1,2.244.5,1.827,1.827,0,0,1-2.339,1.045c-.048.129-.112.241-.163.366H9ZM6.75,10.5A1.25,1.25,0,1,0,5.5,11.75,1.25,1.25,0,0,0,6.75,10.5ZM7,5H5V7H7ZM4,5H2V7H4Z" fill="#9aa7b0" opacity="0.8"/>
    </g>
  </g>
</svg>
