<svg xmlns="http://www.w3.org/2000/svg" width="16" height="16" viewBox="0 0 16 16">
  <title>DockerUpdating</title>
  <g>
    <rect width="16" height="16" fill="#ffdbff" opacity="0"/>
    <g>
      <path d="M16,13H14.5a2,2,0,0,0-3.933-.487l-.508-.1A3,3,0,0,1,16,13Zm-3,3a3,3,0,0,0,2.941-2.412l-.508-.1A2,2,0,0,1,11.5,13H10A3,3,0,0,0,13,16Z" fill="#b99bf8"/>
      <path d="M10,7H8V5h2Zm0-5H8V4h2ZM7,2H5V4H7ZM4,5H2V7H4ZM7,5H5V7H7Zm2.046,8.457A8.808,8.808,0,0,1,5.964,14C1.976,14,.992,10.706.992,8.8a4.42,4.42,0,0,1,.046-.665c.007-.05.014-.093.02-.132H11.244a2.245,2.245,0,0,0,1.135-.233c-.7-1.111-.635-2.145.088-2.723a1.845,1.845,0,0,1,1.289,2.045,1.8,1.8,0,0,1,2.244.5,1.827,1.827,0,0,1-2.339,1.045c-.054.146-.126.273-.185.414A3.935,3.935,0,0,0,13,9a4,4,0,0,0-4,4A4.041,4.041,0,0,0,9.046,13.457ZM6.75,10.5A1.25,1.25,0,1,0,5.5,11.75,1.25,1.25,0,0,0,6.75,10.5Z" fill="#9aa7b0" opacity="0.8"/>
    </g>
  </g>
</svg>
