<svg xmlns="http://www.w3.org/2000/svg" width="16" height="16" viewBox="0 0 16 16">
  <g id="AzureFunctionAppStopped" fill="none" fill-rule="evenodd">
    <path id="Fill-3" fill="#9AA7B0" d="M8.3286,8.5693 L5.2816,7.7903 L7.7946,1.9003 L10.6276,1.9003 L6.3376,7.2613 L9.9636,8.2063 L6.1486,14.0453 L8.3286,8.5693 Z M8.9996,10.0003 C8.9996,9.4473 9.4476,9.0003 9.9996,9.0003 L10.5196,9.0003 L11.4996,7.5003 L7.7006,7.0003 L12.4996,1.0003 L7.2006,1.0003 L3.9996,8.5003 L7.1886,9.0003 L4.7996,15.0003 L6.5996,15.0003 L8.9996,11.3263 L8.9996,10.0003 Z" opacity=".8"/>
    <polygon id="Fill-5" fill="#9AA7B0" points="1.25 8 3.8 4.6 3 4 0 8 3 12 3.8 11.4" opacity=".8"/>
    <polygon id="Fill-7" fill="#9AA7B0" points="14 9 15.25 9 16 8 13 4 12.2 4.6 14.75 8" opacity=".8"/>
    <polygon id="Fill-10" fill="#E05555" points="10 16 16 16 16 10 10 10"/>
  </g>
</svg>
