<svg xmlns="http://www.w3.org/2000/svg" width="16" height="16" viewBox="0 0 16 16">
  <g id="Function" fill="none" fill-rule="evenodd" stroke="none" stroke-width="1">
    <path id="Fill-2" fill="#B99BF8" d="M9.3018,5.8203 L8.1528,11.3103 C7.9478,12.2763 7.4998,13.0953 6.8428,13.7093 C6.1868,14.3223 5.2298,14.8913 4.5348,14.8913 C3.8188,14.8913 3.2408,14.4493 3.2408,13.8083 C3.2408,13.3803 3.6428,13.0183 4.0788,13.0183 C4.6088,13.0183 4.9368,13.6013 5.2098,14.0643 C5.4538,14.0463 5.6318,13.8123 5.8678,13.3853 C6.1058,12.9603 6.3108,12.3503 6.4858,11.5583 L7.6878,5.8203 L6.3128,5.8203 L6.4498,5.2263 L7.8068,5.2263 L7.9018,4.7843 C8.3328,2.7003 9.9508,1.1463 11.4648,1.1463 C12.1878,1.1463 12.7288,1.5993 12.7288,2.1703 C12.7288,2.5413 12.3748,2.9813 11.9188,2.9813 C11.3628,2.9813 11.0188,2.3903 10.7908,1.9353 C10.1168,1.9643 9.7478,3.6693 9.5678,4.5363 L9.4218,5.2263 L10.9688,5.2263 L10.8308,5.8203 L9.3018,5.8203 Z"/>
  </g>
</svg>
