<svg xmlns="http://www.w3.org/2000/svg" width="16" height="16" viewBox="0 0 16 16">
  <title>WebAppRunning</title>
  <g>
    <rect width="16" height="16" fill="#ffdbff" opacity="0"/>
    <g>
      <polygon points="16 12.5 10 9 10 16 16 12.5" fill="#62b543"/>
      <path d="M14.553,10.443c-.006.015-.014.028-.02.043l-.042-.024ZM8.859,3.627c.295.11.589.224.879.347.463.209.915.442,1.361.688a1.456,1.456,0,0,1,.729-.2A1.476,1.476,0,0,1,13.3,5.938a1.561,1.561,0,0,1-.02.207c.039.032.081.061.119.094A9.976,9.976,0,0,1,15,7.952,6.993,6.993,0,0,0,11.03,1.7a9.508,9.508,0,0,0-1.98,1.69C8.982,3.464,8.925,3.549,8.859,3.627Zm.274,1.719c-.389-.175-.788-.328-1.184-.487A16.012,16.012,0,0,0,6.53,7.568c-.07.175-.119.357-.182.535A1.906,1.906,0,0,1,6.873,9.4c.189.046.373.106.564.143.514.108,1.037.185,1.563.248V8h1.271l3.282,1.915c.395-.019.791-.039,1.191-.063A6.908,6.908,0,0,0,14.951,8.8a18.129,18.129,0,0,0-2.238-1.613c-.017-.01-.035-.018-.051-.028a1.476,1.476,0,0,1-2.311-1.218l0-.018C9.949,5.724,9.547,5.523,9.133,5.346ZM5.357,3.92A22.205,22.205,0,0,0,2.826,3.3,6.987,6.987,0,0,0,1.291,6.011,6.181,6.181,0,0,0,3.507,8.118c.011.007.023.012.034.018A1.918,1.918,0,0,1,4.4,7.592c.084-.261.174-.521.277-.776A11.969,11.969,0,0,1,6.151,4.194C5.885,4.1,5.624,4.005,5.357,3.92ZM9,11.231a14.486,14.486,0,0,1-1.862-.224c-.283-.06-.564-.136-.844-.219a1.9,1.9,0,0,1-.784.455c-.063.367-.118.735-.149,1.106a12.781,12.781,0,0,0,.006,2.134A6.793,6.793,0,0,0,9,14.921ZM7.1,3.082a10.141,10.141,0,0,1,.891-.83A7.654,7.654,0,0,1,9.667,1.208a6.932,6.932,0,0,0-6.2,1.462,11.388,11.388,0,0,1,2.14.111A13.851,13.851,0,0,1,7.1,3.082ZM3.789,10.925a1.905,1.905,0,0,1-.747-1.508c0-.066.013-.127.019-.191-.075-.056-.158-.1-.231-.158A5.488,5.488,0,0,1,1.106,6.827a6.926,6.926,0,0,0,2.909,6.924A9.26,9.26,0,0,1,3.8,12.358,10.709,10.709,0,0,1,3.789,10.925Z" fill="#40b6e0"/>
    </g>
  </g>
</svg>
