<svg xmlns="http://www.w3.org/2000/svg" width="16" height="16" viewBox="0 0 16 16">
  <path fill="#d9a343" fill-rule="evenodd" d="M8 4.8c-.372 0-1.1.306-1.1.483 0 .255.811 1.126 1.1 1.126s1.1-.871 1.1-1.126c0-.177-.728-.483-1.1-.483M6 12.905a10.808 10.808 0 00-.419-1.5c-.19-.564-.435-1.4-.7-1.4-.213 0-.381.353-.757.47a2.833 2.833 0 01-.966-.058.4.4 0 00-.407.423 1.6 1.6 0 01-.153.99c-.225.4-.588.46-.588.736 0 .241.919.635 1.459.88A6.9 6.9 0 004.928 14 1.248 1.248 0 006 12.905" opacity=".8"/>
  <path fill="#9aa7b0" d="M6 4.409c0 .862.239.959.239 1.789 0 1.141-.838 1.165-.838 2.775 0 .059.012.11.016.167A1.106 1.106 0 004.875 9a1.316 1.316 0 00-.848.33c.14-2.068 1.46-2.324 1.46-3.626C5.487 5.2 5.3 5 5.3 4.4A2.42 2.42 0 018 2a2.42 2.42 0 012.7 2.4c0 .607-.187.8-.187 1.308 0 1.216 1.14 1.539 1.406 3.257l-1.425-.835c-.224-.82-.733-1.039-.733-1.932 0-.83.239-.927.239-1.789A1.169 1.169 0 008.928 3.15.863.863 0 008 3.881a.862.862 0 00-.928-.731A1.169 1.169 0 006 4.409zm3 6.546a3.5 3.5 0 01-1 .145 3.183 3.183 0 01-1.6-.385l.062.183.061.183A8.687 8.687 0 017 12.905a1.723 1.723 0 01-.062.439A4.116 4.116 0 008 13.5a4.017 4.017 0 001-.142z"/>
  <path fill="#62b543" d="M16 12.5L10 9v7l6-3.5z"/>
</svg>
