<svg xmlns="http://www.w3.org/2000/svg" width="16" height="16" viewBox="0 0 16 16">
  <path fill="#d9a343" fill-rule="evenodd" d="M8 4.8c.372 0 1.1.306 1.1.483 0 .255-.811 1.126-1.1 1.126s-1.1-.871-1.1-1.126c0-.177.728-.483 1.1-.483m-2 8.105a10.808 10.808 0 00-.419-1.5c-.19-.564-.435-1.4-.7-1.4-.213 0-.381.353-.757.47a2.833 2.833 0 01-.966-.058.4.4 0 00-.407.423 1.6 1.6 0 01-.153.99c-.225.4-.588.46-.588.736 0 .241.919.635 1.459.88A6.9 6.9 0 004.928 14 1.248 1.248 0 006 12.905" opacity=".6"/>
  <path fill="#b99bf8" d="M16 13h-1.5a2 2 0 00-3.933-.487l-.508-.1A3 3 0 0116 13zm-3 3a3 3 0 002.941-2.412l-.508-.1A2 2 0 0111.5 13H10a3 3 0 003 3z"/>
  <path fill="#9aa7b0" d="M6 4.409c0 .862.239.959.239 1.789 0 1.141-.838 1.165-.838 2.775 0 .059.012.11.016.167A1.106 1.106 0 004.875 9a1.316 1.316 0 00-.848.33c.14-2.068 1.46-2.324 1.46-3.626C5.487 5.2 5.3 5 5.3 4.4A2.42 2.42 0 018 2a2.42 2.42 0 012.7 2.4c0 .607-.187.8-.187 1.308 0 1.262 1.231 1.556 1.435 3.454-.051.014-.1.03-.15.046a1.229 1.229 0 00-.673-.2 1.106 1.106 0 00-.542.14c0-.057.017-.108.017-.167 0-1.61-.839-1.634-.839-2.775 0-.83.239-.927.239-1.789A1.169 1.169 0 008.928 3.15.863.863 0 008 3.881a.862.862 0 00-.928-.731A1.169 1.169 0 006 4.409zM9 13c0-.024.007-.047.007-.071v-.024a1.975 1.975 0 01.023-.205 3.965 3.965 0 01.4-1.464l.048-.148.06-.184.062-.183A3.18 3.18 0 018 11.1a3.183 3.183 0 01-1.6-.385l.062.183.061.183A8.687 8.687 0 017 12.905a1.723 1.723 0 01-.062.439A4.116 4.116 0 008 13.5a4.049 4.049 0 001.035-.149C9.025 13.233 9 13.12 9 13z" opacity=".6"/>
</svg>
