<svg xmlns="http://www.w3.org/2000/svg" width="16" height="16" viewBox="0 0 16 16">
  <path fill="#f98b9e" d="M14 10.5v2a.36.36 0 01-.228.333l-4.927 2a2.246 2.246 0 01-1.69 0l-4.927-2A.36.36 0 012 12.5v-2a.36.36 0 00.228.333l4.927 2a2.246 2.246 0 001.69 0l4.927-2A.36.36 0 0014 10.5zm-.228-2.667l-4.927 2a2.246 2.246 0 01-1.69 0l-4.927-2A.36.36 0 012 7.5v2a.36.36 0 00.228.333l4.927 2a2.246 2.246 0 001.69 0l4.927-2A.36.36 0 0014 9.5v-2a.36.36 0 01-.228.333zm0-3.666A.36.36 0 0114 4.5v2a.36.36 0 01-.228.333l-4.927 2a2.246 2.246 0 01-1.69 0l-4.927-2A.36.36 0 012 6.5v-2a.36.36 0 01.228-.333l4.927-2a2.246 2.246 0 011.69 0zm-1.036 1.087a.274.274 0 000-.508L8.845 3.165a2.246 2.246 0 00-1.69 0L3.264 4.746a.274.274 0 000 .508l3.891 1.581a2.246 2.246 0 001.69 0z" opacity=".7"/>
</svg>
