<svg xmlns="http://www.w3.org/2000/svg" width="16" height="16" viewBox="0 0 16 16">
  <title>DeploymentSlot</title>
  <g>
    <rect width="16" height="16" fill="#ffdbff" opacity="0"/>
    <g>
      <path d="M12.1,3.1h.8v7.8h-.8V3.1M12,2a1,1,0,0,0-1,1v8a1,1,0,0,0,1,1h1a1,1,0,0,0,1-1V3a1,1,0,0,0-1-1Z" fill="#9aa7b0"/>
      <path d="M8.1,3.1h.8v7.8H8.1V3.1M8,2A1,1,0,0,0,7,3v8a1,1,0,0,0,1,1H9a1,1,0,0,0,1-1V3A1,1,0,0,0,9,2Z" fill="#9aa7b0"/>
      <rect x="3" y="2" width="3" height="10" rx="1" ry="1" transform="translate(9 14) rotate(-180)" fill="#40b6e0"/>
      <path d="M2,11.5v1a.5.5,0,0,0,.5.5h12a.5.5,0,0,0,.5-.5v-1h1v1A1.5,1.5,0,0,1,14.5,14H2.5A1.5,1.5,0,0,1,1,12.5v-1Z" fill="#9aa7b0"/>
    </g>
  </g>
</svg>
