<svg xmlns="http://www.w3.org/2000/svg" width="16" height="16" viewBox="0 0 16 16">
  <g id="TemplateAzureFunc_dark" fill="none" fill-rule="evenodd" stroke="none" stroke-width="1">
    <polygon id="Fill-2" fill="#242424" points="3.342 3 0 7.68 0 8.319 3.342 13 4.202 13 6.001 11.585 6.001 10.78 4.015 7.999 6.001 5.22 6.001 4.415 4.203 3"/>
    <polygon id="Fill-3" fill="#C3C3C3" points="5 4.9 3.856 4 1 8 3.856 12 5 11.1 2.786 8"/>
    <polygon id="Fill-4" fill="#242424" points="11.798 3 10 4.415 10 5.22 11.985 7.999 10 10.78 10 11.585 11.798 13 12.658 13 16 8.319 16 7.68 12.658 3"/>
    <polygon id="Fill-5" fill="#C3C3C3" points="11 4.9 12.144 4 15 8 12.144 12 11 11.099 13.214 8"/>
    <polygon id="Fill-6" fill="#242424" points="13 1 7.145 1 4 8.22 4 9.287 6.45 9.663 5 13.83 5 15 7.234 15 12 7.875 12 6.696 9.706 6.389 13 2.356"/>
    <polygon id="Fill-7" fill="#E8A34D" points="12 2 7.8 2 5 8.429 7.79 8.857 6 14 6.7 14 11 7.571 7.8 7.143"/>
  </g>
</svg>
