<svg xmlns="http://www.w3.org/2000/svg" width="13" height="13" viewBox="0 0 13 13">
  <g id="toolWindowAzureLog_dark" fill="none" fill-rule="evenodd">
    <path id="Fill-4" fill="#AFB1B3" d="M2.7567,5.5804 L-0.0003,11.0004 L2.4907,11.0004 L6.0007,2.4994 L2.7567,5.5804 Z M5.5407,7.5944 L7.9367,10.3334 L3.1097,12.0004 L10.9997,12.0004 L6.4567,3.4574 L5.5407,7.5944 Z"/>
    <path id="Fill-5" fill="#AFB1B3" d="M6.2829,1.0003 L6.8149,2.0003 L12.9999,2.0003 L12.9999,1.0003 L6.2829,1.0003 Z M7.3469,3.0003 L7.8789,4.0003 L12.9999,4.0003 L12.9999,3.0003 L7.3469,3.0003 Z M8.4109,5.0003 L8.9419,5.9993 L12.9999,5.9993 L12.9999,5.0003 L8.4109,5.0003 Z M9.4739,6.9993 L10.0049,7.9993 L12.9999,7.9993 L12.9999,6.9993 L9.4739,6.9993 Z"/>
  </g>
</svg>
