<svg xmlns="http://www.w3.org/2000/svg" width="16" height="16" viewBox="0 0 16 16">
  <title>VirtualMachines</title>
  <g>
    <rect width="16" height="16" fill="#ffdbff" opacity="0"/>
    <g>
      <g>
        <path d="M7.912,6.226a.165.165,0,0,0,.176,0L10.4,4.774a.178.178,0,0,0-.015-.309L8.074,3.3a.167.167,0,0,0-.148,0L5.618,4.465a.178.178,0,0,0-.015.309Z" fill="#00b8e4"/>
        <path d="M7.679,6.934A.167.167,0,0,0,7.6,6.793L5.27,5.327a.176.176,0,0,0-.27.15v2.6a.165.165,0,0,0,.078.141L7.409,9.687a.176.176,0,0,0,.27-.15Z" fill="#00b8e4" opacity="0.8"/>
        <path d="M8.4,6.793a.167.167,0,0,0-.078.141v2.6a.176.176,0,0,0,.27.15l2.331-1.466A.165.165,0,0,0,11,8.08v-2.6a.176.176,0,0,0-.27-.15Z" fill="#00b8e4" opacity="0.6"/>
      </g>
      <path d="M10,14h3v1H3V14H6l.188-1.5H9.812ZM16,2v9a1,1,0,0,1-1,1H1a1,1,0,0,1-1-1V2A1,1,0,0,1,1,1H15A1,1,0,0,1,16,2ZM15,2H1v9H15Z" fill="#9aa7b0"/>
    </g>
  </g>
</svg>
