<svg xmlns="http://www.w3.org/2000/svg" width="16" height="16" viewBox="0 0 16 16">
  <title>VirtualMachinesUpdating</title>
  <g>
    <rect width="16" height="16" fill="#ffdbff" opacity="0"/>
    <g>
      <path d="M16,13H14.5a2,2,0,0,0-3.933-.487l-.508-.1A3,3,0,0,1,16,13Zm-3,3a3,3,0,0,0,2.941-2.412l-.508-.1A2,2,0,0,1,11.5,13H10A3,3,0,0,0,13,16Z" fill="#b99bf8"/>
      <g>
        <path d="M5.6,4.774a.178.178,0,0,1,.015-.309L7.926,3.3a.167.167,0,0,1,.148,0l2.308,1.162a.178.178,0,0,1,.015.309L8.088,6.226a.165.165,0,0,1-.176,0Zm2.076,2.16A.167.167,0,0,0,7.6,6.793L5.27,5.327a.176.176,0,0,0-.27.15v2.6a.165.165,0,0,0,.078.141L7.409,9.687a.176.176,0,0,0,.27-.15Zm.72-.141a.167.167,0,0,0-.078.141v2.6a.176.176,0,0,0,.27.15l2.331-1.466A.165.165,0,0,0,11,8.08v-2.6a.176.176,0,0,0-.27-.15Z" fill="#9aa7b0" opacity="0.8"/>
        <path d="M9.141,12H1a1,1,0,0,1-1-1V2A1,1,0,0,1,1,1H15a1,1,0,0,1,1,1v8.38a3.976,3.976,0,0,0-1-.825V2H1v9H9.555A3.966,3.966,0,0,0,9.141,12ZM9,13a4.13,4.13,0,0,1,.05-.5H6.188L6,14H3v1H9.555A3.955,3.955,0,0,1,9,13Z" fill="#9aa7b0" opacity="0.8"/>
      </g>
    </g>
  </g>
</svg>
