<svg xmlns="http://www.w3.org/2000/svg" width="16" height="16" viewBox="0 0 16 16">
  <path fill="#00b8e4" d="M7.912 6.226a.165.165 0 00.176 0L10.4 4.774a.178.178 0 00-.015-.309L8.074 3.3a.167.167 0 00-.148 0L5.618 4.465a.178.178 0 00-.015.309z"/>
  <path fill="#00b8e4" d="M7.679 6.934a.167.167 0 00-.079-.141L5.27 5.327a.176.176 0 00-.27.15v2.6a.165.165 0 00.078.141l2.331 1.469a.176.176 0 00.27-.15z" opacity=".8"/>
  <path fill="#00b8e4" d="M8.4 6.793a.167.167 0 00-.078.141v2.6a.176.176 0 00.27.15l2.331-1.466A.165.165 0 0011 8.08v-2.6a.176.176 0 00-.27-.15z" opacity=".6"/>
  <path fill="#9aa7b0" d="M16 2v9a1 1 0 01-1 1H1a1 1 0 01-1-1V2a1 1 0 011-1h14a1 1 0 011 1zm-1 0H1v9h14z"/>
  <path fill="#9aa7b0" d="M10 14h3v1H3v-1h3l.188-1.5h3.625L10 14z" opacity=".8"/>
</svg>
