<svg xmlns="http://www.w3.org/2000/svg" width="16" height="16" viewBox="0 0 16 16">
  <title>ContainerRegistry</title>
  <g>
    <rect width="16" height="16" fill="#ffdbff" opacity="0"/>
    <g>
      <path d="M4,7.419l3.669-2.1,1.667-.112,3.973,1.222a3.188,3.188,0,0,0-.989-.679c0-.106.028-.239.028-.346A3.521,3.521,0,0,0,8.708,2a3.7,3.7,0,0,0-2.94,1.411,2.708,2.708,0,0,0-1.456-.4A2.679,2.679,0,0,0,1.568,5.6v.213A2.574,2.574,0,0,0,0,8.151,2.967,2.967,0,0,0,3.136,11H4Z" fill="#40b6e0"/>
      <path d="M8.167,9.005,5,10V8L8.3,6.117Zm-.044.97L5,10.6V13l3.3,1.883Zm.58,4.947L15,12.5V10.6L8.875,9.94Zm0-8.86.128,2.894L15,10V8Z" fill="#9aa7b0"/>
    </g>
  </g>
</svg>
